<?xml version="1.0" encoding="utf-8" ?>
<svg xmlns="http://www.w3.org/2000/svg" xmlns:xlink="http://www.w3.org/1999/xlink" width="1024" height="1024">
	<path fill="#5CD1BC" d="M595.748 385.923L594.586 384.25L595.25 383.924C604.07 387.975 612.77 394.836 620.856 400.23C664.361 429.252 701.547 465.085 720.082 515.101C734.802 554.822 734.978 603.684 717.118 642.392C709.254 659.437 698.597 675.01 686.06 688.967C669.529 707.37 649.947 722.802 629.741 736.965C564.603 782.626 490.124 814.243 415.786 841.561L251.75 889.951L251.452 889.5L253.041 887.855C260.944 879.372 269.614 871.737 277.993 863.747L319.433 823.493L407.95 735.131L489.875 653.058L533.036 608.517C545.904 595.102 558.604 582.051 569.94 567.25C586.91 545.093 602.246 520.895 609.49 493.669C616.317 468.008 617.123 440.338 609.055 414.809C605.796 404.496 601.159 395.241 595.748 385.923Z"/>
	<path fill="#054555" d="M595.748 385.923C601.909 390.367 607.404 396.376 612.413 402.063C634.839 427.521 650.042 460.272 655.492 493.75C657.53 506.27 658.921 519.298 658.291 532C656.46 568.906 641.583 603.272 620.055 632.918C609.997 646.768 599.107 659.847 587.113 672.072C569.458 690.067 549.844 706.151 530.18 721.875C487.684 755.859 442.826 786.404 396.201 814.426C364.907 833.234 333.223 850.932 300.25 866.637L270.885 880.216C265.897 882.54 259.251 886.789 253.942 887.718L253.041 887.855C260.944 879.372 269.614 871.737 277.993 863.747L319.433 823.493L407.95 735.131L489.875 653.058L533.036 608.517C545.904 595.102 558.604 582.051 569.94 567.25C586.91 545.093 602.246 520.895 609.49 493.669C616.317 468.008 617.123 440.338 609.055 414.809C605.796 404.496 601.159 395.241 595.748 385.923Z"/>
	<path fill="#5CD1BC" d="M423.771 635.664L428.552 645.026L373.784 601.026C335.42 567.695 301.686 524.934 294.353 473.261C287.843 427.385 302.29 381.852 329.887 345.182C363.304 300.779 413.444 269.047 461.928 243.389L527.5 211.508C584.492 186.799 643.845 167.625 703.615 150.907L754.947 136.668C761.609 134.855 768.702 132.1 775.496 131.145L775.579 131.75L774.562 132.624L750.884 156.287L698.499 207.585L546.647 357.746L499.635 404.559C477.663 426.503 455.583 448.01 438.52 474.181C420.652 501.586 407.629 535.905 408.82 569.054C409.673 592.788 415.951 613.499 423.771 635.664Z"/>
	<path fill="#054555" d="M423.771 635.664C419.378 631.746 415.49 626.761 411.817 622.181C396.352 602.899 384.164 581.088 375.796 557.833C370.325 542.63 366.528 526.697 365.592 510.531C364.029 483.529 370.796 454.846 382.344 430.486C395.324 403.106 412.989 379.185 433.513 356.978C449.211 339.993 466.983 324.535 484.75 309.764C537.845 265.623 595.915 227.342 656.184 193.698L707.73 166.903L751.79 144.039C759.119 140.223 766.817 135.382 774.562 132.624L750.884 156.287L698.499 207.585L546.647 357.746L499.635 404.559C477.663 426.503 455.583 448.01 438.52 474.181C420.652 501.586 407.629 535.905 408.82 569.054C409.673 592.788 415.951 613.499 423.771 635.664Z"/>
</svg>
